<svg width="18" height="18" viewBox="0 0 18 18" fill="none" xmlns="http://www.w3.org/2000/svg">
<path fill-rule="evenodd" clip-rule="evenodd" d="M12.611 0.666992C15.4352 0.666992 17.3327 2.64866 17.3327 5.59699V12.4037C17.3327 15.352 15.4352 17.3337 12.6093 17.3337H5.38602C2.56268 17.3337 0.666016 15.352 0.666016 12.4037V5.59699C0.666016 2.64866 2.56268 0.666992 5.38602 0.666992H12.611ZM12.611 1.91699H5.38602C3.27852 1.91699 1.91602 3.36116 1.91602 5.59699V12.4037C1.91602 14.6395 3.27852 16.0837 5.38602 16.0837H12.6093C14.7193 16.0837 16.0827 14.6395 16.0827 12.4037V5.59699C16.0827 3.36116 14.7193 1.91699 12.611 1.91699ZM8.99435 8.37533C9.33935 8.37533 9.61935 8.65533 9.61935 9.00033V12.3337C9.61935 12.6787 9.33935 12.9587 8.99435 12.9587C8.64935 12.9587 8.36935 12.6787 8.36935 12.3337V9.00033C8.36935 8.65533 8.64935 8.37533 8.99435 8.37533ZM8.99843 5.00374C9.45927 5.00374 9.83177 5.37624 9.83177 5.83708C9.83177 6.29791 9.45927 6.67041 8.99843 6.67041C8.5376 6.67041 8.16093 6.29791 8.16093 5.83708C8.16093 5.37624 8.5301 5.00374 8.9901 5.00374H8.99843Z" fill="#BBC2D0"/>
</svg>
