<svg width="18" height="14" viewBox="0 0 18 14" fill="none" xmlns="http://www.w3.org/2000/svg">
<path fill-rule="evenodd" clip-rule="evenodd" d="M17.67 0.329986C17.8806 0.540916 17.999 0.826862 17.999 1.12499C17.999 1.42311 17.8806 1.70904 17.67 1.91999L6.79502 12.795C6.58408 13.0056 6.29815 13.1239 6.00002 13.1239C5.7019 13.1239 5.41595 13.0056 5.20502 12.795L0.330021 7.91999C0.131301 7.70672 0.0231206 7.42466 0.0282506 7.13319C0.0333956 6.84174 0.15146 6.56367 0.357591 6.35754C0.563706 6.15143 0.841791 6.03336 1.13324 6.02822C1.42469 6.02307 1.70675 6.13127 1.92002 6.32999L6.00002 10.41L16.08 0.329986C16.2909 0.119311 16.5768 0.000976562 16.875 0.000976562C17.1731 0.000976562 17.4591 0.119311 17.67 0.329986Z" fill="#0084F4"/>
</svg>
